<svg width="640" height="743" viewBox="0 0 640 743" fill="none" xmlns="http://www.w3.org/2000/svg">
<path d="M344.507 54.3904C397.125 58.4575 442.112 97.529 472.27 157.588C502.422 217.637 517.703 298.588 510.93 386.203C504.158 473.817 476.62 551.458 437.597 606.16C398.568 660.872 348.112 692.566 295.493 688.499C242.875 684.432 197.888 645.36 167.73 585.301C137.578 525.252 122.297 444.301 129.069 356.687C135.842 269.072 163.38 191.431 202.403 136.729C241.432 82.0175 291.888 50.3232 344.507 54.3904Z" stroke="#E2E8F0"/>
<path d="M470.571 91.351C424.086 66.362 365.124 74.9571 307.311 109.224C249.507 143.486 192.936 203.37 151.327 280.771C109.719 358.172 90.9744 438.391 94.2819 505.504C97.5899 572.628 122.944 626.549 169.429 651.538C215.914 676.527 274.876 667.932 332.689 633.665C390.493 599.404 447.064 539.519 488.673 462.119C530.281 384.718 549.026 304.498 545.718 237.385C542.41 170.261 517.056 116.34 470.571 91.351Z" stroke="#E2E8F0"/>
<circle cx="282.626" cy="125.713" r="8" transform="rotate(16.3406 282.626 125.713)" fill="#E2E8F0"/>
<circle cx="269.314" cy="661.615" r="8" transform="rotate(16.3406 269.314 661.615)" fill="#E2E8F0"/>
<circle cx="183.759" cy="658.415" r="6" transform="rotate(16.3406 183.759 658.415)" fill="#E2E8F0"/>
<circle cx="164.672" cy="577.788" r="6" transform="rotate(16.3406 164.672 577.788)" fill="#E2E8F0"/>
<circle cx="395.208" cy="651.632" r="6" transform="rotate(16.3406 395.208 651.632)" fill="#E2E8F0"/>
<circle cx="406.455" cy="76.5668" r="8" transform="rotate(16.3406 406.455 76.5668)" fill="#7C86FF"/>
<circle cx="323.866" cy="639.052" r="8" transform="rotate(16.3406 323.866 639.052)" fill="#7C86FF"/>
<circle cx="96.9717" cy="535.013" r="8" transform="rotate(16.3406 96.9717 535.013)" fill="#7C86FF"/>
<circle cx="214.675" cy="119.338" r="6" transform="rotate(16.3406 214.675 119.338)" fill="#E2E8F0"/>
<circle cx="326.808" cy="53.2151" r="6" transform="rotate(16.3406 326.808 53.2151)" fill="#E2E8F0"/>
<circle cx="476.17" cy="165.785" r="6" transform="rotate(16.3406 476.17 165.785)" fill="#E2E8F0"/>
<circle cx="482.942" cy="100.034" r="6" transform="rotate(16.3406 482.942 100.034)" fill="#E2E8F0"/>
</svg>
