<svg width="20" height="17" viewBox="0 0 20 17" fill="none" xmlns="http://www.w3.org/2000/svg">
<path d="M6.22893 16.0391C3.99224 16.0391 1.90725 15.3885 0.152344 14.266C1.64232 14.3624 4.27179 14.1316 5.90732 12.5715C3.44695 12.4586 2.33737 10.5716 2.19264 9.76522C2.40169 9.84586 3.3987 9.94263 3.96153 9.71683C1.1313 9.00719 0.697122 6.52346 0.793607 5.76544C1.32428 6.13639 2.2248 6.26541 2.57858 6.23315C-0.0586783 4.34616 0.890092 1.50761 1.35644 0.894741C3.24903 3.51677 6.08544 4.9894 9.59445 5.07131C9.52829 4.78114 9.49335 4.47904 9.49335 4.16875C9.49335 1.94192 11.2933 0.136719 13.5136 0.136719C14.6736 0.136719 15.7189 0.629521 16.4527 1.41778C17.2279 1.23613 18.3946 0.810887 18.965 0.443153C18.6775 1.47535 17.7825 2.33642 17.2411 2.65556C17.2456 2.66642 17.2367 2.64466 17.2411 2.65556C17.7166 2.58363 19.0034 2.33634 19.5117 1.99145C19.2603 2.57133 18.3114 3.53548 17.5327 4.07526C17.6776 10.465 12.7888 16.0391 6.22893 16.0391Z" fill="white"/>
</svg>
